<?xml version="1.0" standalone="no"?>
<!DOCTYPE svg PUBLIC "-//W3C//DTD SVG 1.1//EN" "http://www.w3.org/Graphics/SVG/1.1/DTD/svg11.dtd" >
<svg xmlns="http://www.w3.org/2000/svg">
<metadata></metadata>
<defs>
<font id="PontanoSansRegular" horiz-adv-x="1218" >
<font-face units-per-em="2048" ascent="1638" descent="-410" />
<missing-glyph horiz-adv-x="450" />
<glyph unicode="&#x31;&#x2f;&#x34;" horiz-adv-x="1403" d="M68 52l78 -66l1235 1429l-77 66zM164 1397l21 -90l117 58v-596h113v695h-103zM707 152h351v-152h115v152h100v82h-100v459h-146l-320 -473v-68zM821 234l237 351v-351h-237z" />
<glyph unicode="&#x31;&#x2f;&#x32;" horiz-adv-x="1361" d="M8 52l78 -66l1235 1429l-77 66zM164 1397l21 -90l117 58v-596h113v695h-103zM735 537q24 -10 71 -35l19 -10q13 59 60 92t103 33t94.5 -33t38.5 -94v-3q0 -68 -93 -143q-105 -86 -160 -137q-108 -102 -112 -207h475v80h-330q39 67 155 152q43 31 83 68q90 82 90 190 t-71.5 165t-162 57t-160 -44.5t-100.5 -130.5z" />
<glyph unicode="&#x33;&#x2f;&#x34;" horiz-adv-x="1441" d="M111 52l78 -66l1235 1429l-77 66zM130 910q20 -82 89 -123t168.5 -41.5t166 63.5t61.5 151q-8 141 -156 184q58 21 90 66.5t32 107t-58.5 112.5t-142.5 51t-146.5 -32.5t-83.5 -90.5l73 -51q20 44 59 66.5t87.5 22.5t75 -26.5t26.5 -71.5q0 -114 -153 -116v-87 q188 0 188 -142q0 -46 -36.5 -82.5t-93.5 -36.5q-132 0 -168 116zM745 152h351v-152h115v152h100v82h-100v459h-146l-320 -473v-68zM859 234l237 351v-351h-237z" />
<glyph unicode="&#xfb01;" horiz-adv-x="1071" d="M52 917v106h173v117q0 171 53 251t181 80q81 0 156 -41l-34 -92q-72 27 -105 27t-50.5 -6.5t-28.5 -23t-17 -32t-9 -47.5q-4 -42 -4 -119v-114h570v-1023h-142v917h-428v-918h-142v918h-173zM793 1242v179h141v-179h-141z" />
<glyph unicode="&#xfb02;" horiz-adv-x="1072" d="M52 917v106h173v117q0 171 53 251t181 80q81 0 156 -41l-34 -92q-72 27 -105 27t-50.5 -6.5t-28.5 -23t-17 -32t-9 -47.5q-4 -42 -4 -119v-114h428v451h142v-1474h-142v917h-428v-918h-142v918h-173z" />
<glyph horiz-adv-x="0" />
<glyph horiz-adv-x="2048" />
<glyph unicode="&#xd;" horiz-adv-x="1069" />
<glyph unicode=" "  horiz-adv-x="450" />
<glyph unicode="&#x09;" horiz-adv-x="450" />
<glyph unicode="&#xa0;" horiz-adv-x="450" />
<glyph unicode="!" horiz-adv-x="428" d="M138 0v197h164v-197h-164zM138 1464h169l-57 -1159h-59z" />
<glyph unicode="&#x22;" horiz-adv-x="510" d="M53 1464h154l-51 -464h-51zM303 1464h154l-51 -464h-51z" />
<glyph unicode="#" horiz-adv-x="1221" d="M51 551l29 98h195l51 252h-206l29 98h197l94 464l139 1l-96 -465h325l94 464l139 1l-96 -465h230l-29 -98h-221l-52 -252h233l-29 -98h-224l-113 -550l-134 -1l111 551h-326l-113 -550l-134 -1l111 551h-204zM411 649h326l51 252h-325z" />
<glyph unicode="$" horiz-adv-x="1323" d="M98 373q19 -103 75.5 -181.5t134.5 -123.5q149 -84 334 -92v-177h89v178q223 12 351.5 121t128.5 295q0 158 -91 246q-84 81 -244 147q-43 17 -78 30.5t-47.5 18.5t-19.5 7v521q127 -9 211.5 -69t131.5 -146l104 76q-81 124 -189 186t-258 70v194h-89v-193 q-185 -8 -316 -95q-142 -94 -142 -270q0 -173 168 -274q74 -45 254 -107q24 -9 36 -12v-621q-337 17 -421 324zM337 1141.5q0 96.5 84 154.5t221 66v-491q-183 59 -242 115q-63 59 -63 155.5zM731 103v589q214 -75 274 -146q53 -63 53 -146.5t-27 -138t-74 -87.5 q-88 -61 -223 -71h-3z" />
<glyph unicode="%" horiz-adv-x="1677" d="M50 1118q0 197 138 296q72 52 168.5 52t167.5 -52q136 -99 136 -294q0 -196 -136 -295q-71 -51 -167 -51q-145 0 -226 102t-81 242zM161 1122.5q0 -103.5 52 -179t143 -75.5t141.5 75.5t50.5 159.5t-20.5 140t-65 93.5t-105.5 37.5q-93 0 -144.5 -74t-51.5 -177.5z M190 52l78 -66l1235 1429l-77 66zM1019 344q0 137 76 238q82 110 241 110q85 0 156 -52q136 -98 136 -294q0 -197 -136 -295q-70 -51 -167.5 -51t-168.5 51q-137 97 -137 293zM1129 367q0 -84 21.5 -141t67 -95t107.5 -38q90 0 141 76t51 160t-20.5 139.5t-65.5 93 t-106 37.5q-93 0 -144.5 -74t-51.5 -158z" />
<glyph unicode="&#x26;" horiz-adv-x="1430" d="M98 399q0 -171 135.5 -298t348.5 -127q298 0 506 221q16 -16 53 -54t59 -61q56 -55 120 -108l73 85q-72 62 -134 130.5t-90 97.5q107 205 142 497l-130 19q-30 -205 -54.5 -289t-52.5 -131l-397 455q164 82 248.5 169.5t84.5 212t-95 198t-239.5 73.5t-247.5 -75 t-103 -204q0 -88 39 -167t120 -170q-179 -71 -282.5 -187t-103.5 -287zM244 409.5q0 121.5 72.5 208t240.5 167.5l445 -502q-78 -97 -184 -147.5t-206 -50.5t-171 28.5t-113 76.5q-84 98 -84 219.5zM459 1209q0 82 66 132t151 50t145.5 -50t60.5 -136q0 -117 -132 -209 q-57 -40 -141 -79q-150 162 -150 292z" />
<glyph unicode="'" horiz-adv-x="280" d="M70 1464h154l-51 -464h-51z" />
<glyph unicode="(" horiz-adv-x="602" d="M34 703q0 390 130.5 610t358.5 274l37 -105q-375 -106 -375 -780.5t375 -774.5l-37 -107q-229 55 -359 274t-130 609z" />
<glyph unicode=")" horiz-adv-x="602" d="M42 -75q375 106 375 780.5t-375 774.5l37 107q229 -55 359 -274t130 -609t-130.5 -610t-358.5 -274z" />
<glyph unicode="*" horiz-adv-x="826" d="M60 1242l47 88l266 -155l-10 288h100l-10 -287l265 155l47 -88l-275 -130l276 -130l-47 -88l-266 155l10 -288h-100l10 287l-265 -155l-47 88l275 130z" />
<glyph unicode="+" horiz-adv-x="860" d="M72 673v100h304v327h102v-327h300v-100h-300v-323h-102v323h-304z" />
<glyph unicode="," horiz-adv-x="445" d="M100 29v190h200v-85q-5 -153 -19 -212q-27 -114 -118 -176l-49 62q27 21 52.5 74.5t27.5 133.5z" />
<glyph unicode="-" horiz-adv-x="724" d="M100 400v111h500v-111h-500z" />
<glyph unicode="." horiz-adv-x="434" d="M135 0v215h164v-215h-164z" />
<glyph unicode="/" horiz-adv-x="592" d="M43 -8l415 1542l117 -27l-423 -1542z" />
<glyph unicode="0" horiz-adv-x="1246" d="M114 724q0 -336 126 -539q62 -100 160 -155t223 -55t223 55t160 155q126 203 126 539q0 339 -126 548q-63 104 -160.5 161.5t-222.5 57.5t-222.5 -57.5t-160.5 -161.5q-126 -209 -126 -548zM269 724q0 400 159 566q81 84 195 84t195 -84q159 -166 159 -566 q0 -388 -156 -548q-81 -83 -198 -83t-198 83q-156 160 -156 548z" />
<glyph unicode="1" horiz-adv-x="592" d="M58 1364l44 -116l186 80v-1328h146v1464h-129z" />
<glyph unicode="2" horiz-adv-x="1137" d="M56 1141l129 -52q128 281 389 281q127 0 216.5 -82.5t89.5 -225.5q0 -169 -152 -318q-68 -66 -150 -130.5t-164.5 -131.5t-151.5 -136q-156 -158 -162 -346h919v121h-739q60 119 222 251q68 55 144.5 114t145.5 121t125 129q123 149 123 324q0 110 -39.5 195t-107.5 135 q-137 102 -320 102t-309 -84.5t-208 -266.5z" />
<glyph unicode="3" horiz-adv-x="1092" d="M89 316q63 -253 311 -321q69 -19 160 -19t178.5 37.5t143.5 98.5q115 127 115 281t-77.5 267t-235.5 158q121 39 181.5 130t60.5 204q0 153 -104.5 247t-286.5 94q-261 0 -412 -237l106 -64q118 189 313 189q117 0 179 -71t62 -170q0 -111 -67 -188q-78 -88 -275 -88 v-113q199 0 303 -84t104 -271q0 -122 -83.5 -212t-231.5 -90q-236 0 -320 264z" />
<glyph unicode="4" horiz-adv-x="1206" d="M131 357v107l542 1000h204v-997h255v-110h-254v-357h-140v357h-607zM292 467h446v865z" />
<glyph unicode="5" horiz-adv-x="1163" d="M99 309l124 50q57 -124 149.5 -194t188.5 -70t163.5 29.5t109.5 79.5q89 104 89 249q0 140 -79 245q-85 110 -245 110t-323 -123l-91 59l96 720h701v-127h-570l-69 -481l5 2q126 70 251.5 70t216.5 -38.5t146 -104.5q110 -134 110 -324q0 -257 -183 -393 q-121 -90 -298 -90q-362 0 -492 331z" />
<glyph unicode="6" horiz-adv-x="1202" d="M124 708q0 177 38.5 326.5t107.5 249.5q141 207 371 207q150 0 322 -95l-41 -111q-155 87 -268 87t-188 -59q-154 -122 -176 -485q164 118 332 118q190 0 323 -116q64 -56 101 -145.5t37 -183t-19 -166.5t-58 -138t-93 -114q-118 -107 -290 -107q-374 0 -469 422 q-30 133 -30 310zM283 605.5q0 -66.5 6.5 -126.5t21.5 -119.5t41 -106.5t63 -84q77 -77 208 -77q128 0 217 102q92 105 92 286q0 260 -190 328q-55 19 -121 19q-164 0 -337 -129q-1 -26 -1 -92.5z" />
<glyph unicode="7" horiz-adv-x="948" d="M136 1464h738v-113l-557 -1352l-158 2l563 1347h-574z" />
<glyph unicode="8" horiz-adv-x="1160" d="M106 351q0 238 292 408q-94 43 -157 105q-114 111 -114 237q0 168 109 271q128 120 358 120q241 0 366 -135q89 -97 89 -258q0 -69 -30.5 -131.5t-77.5 -105.5q-91 -81 -173 -111q208 -100 264 -225q30 -69 30 -146t-20.5 -134t-62.5 -106t-100 -86q-125 -78 -310 -78 q-211 0 -339 114q-124 110 -124 261zM264 385.5q0 -74.5 21.5 -125.5t60.5 -90q87 -87 238 -87q124 0 224 73q47 34 76.5 89.5t29.5 112t-12.5 95.5t-31.5 68.5t-52 55.5t-63.5 44.5t-78.5 36.5q-65 26 -175 58q-113 -68 -175 -162t-62 -168.5zM278 1104q0 -94 54 -151 q43 -45 79 -64t57.5 -29t60.5 -24q40 -15 130 -44q240 120 240 309q0 204 -188 261q-54 17 -109 17t-99.5 -9t-85.5 -30t-71 -52q-68 -69 -68 -184z" />
<glyph unicode="9" horiz-adv-x="1197" d="M119 963.5q0 87.5 12 148t35.5 117.5t62.5 104.5t89 82.5q108 76 269 76q486 0 486 -721q0 -382 -145 -589q-140 -201 -373 -201q-151 0 -328 94l41 111q159 -87 282 -87q157 0 251.5 138t110.5 406q-158 -118 -321 -118q-195 0 -331 116q-65 56 -103 145.5t-38 177z M270 991q0 -262 197 -328q57 -19 126 -19q159 0 325 129q1 24 1 91q0 301 -133 434q-76 76 -208 76q-128 0 -216 -100q-92 -103 -92 -283z" />
<glyph unicode=":" horiz-adv-x="482" d="M159 171v216h173v-216h-173zM159 808v216h173v-216h-173z" />
<glyph unicode=";" horiz-adv-x="478" d="M150 29v190h200v-85q-5 -153 -19 -212q-28 -114 -118 -176l-49 62q27 21 52.5 74.5t27.5 133.5zM159 808v216h173v-216h-173z" />
<glyph unicode="&#x3c;" horiz-adv-x="1051" d="M49 469v126l949 355v-152l-787 -273l787 -284v-138z" />
<glyph unicode="=" horiz-adv-x="820" d="M135 300v100h550v-100h-550zM135 550v100h550v-100h-550z" />
<glyph unicode="&#x3e;" horiz-adv-x="1051" d="M53 103v152l787 273l-787 284v138l949 -366v-126z" />
<glyph unicode="?" horiz-adv-x="1010" d="M35 1250l99 -73q130 203 354 203q233 0 292 -186q15 -49 15 -112t-22 -122t-65 -117t-92 -117q-143 -169 -250 -368h149q89 152 241 335q128 155 156.5 238.5t28.5 160.5t-25.5 145.5t-76.5 126.5q-112 127 -342 127q-310 0 -462 -241zM350 0h164v215h-164v-215z" />
<glyph unicode="@" horiz-adv-x="1704" d="M114 476q0 240 130 438q142 216 371 298q125 44 252 44t232.5 -30.5t194 -89t154.5 -138.5q143 -170 143 -402q0 -286 -147 -416q-77 -68 -186 -68q-70 0 -122 57q-31 33 -45 83q-97 -147 -234 -176q-42 -9 -93.5 -9t-97.5 13.5t-80.5 38.5t-61.5 58.5t-44 73.5 q-35 79 -35 174t31 187t84.5 164t134 116.5t171.5 44.5q136 0 279 -93l25 73h98l-92 -591q0 -66 51 -104q23 -17 46.5 -17t44 8t40 24.5t37 41t32 58t24.5 73.5q22 88 22 192.5t-32 191.5t-87.5 151.5t-129.5 111.5q-148 94 -338 94q-315 0 -508 -263q-138 -189 -138 -423.5 t130 -390.5q162 -193 469 -194q186 0 409 90l40 -75q-236 -118 -446 -118q-420 0 -616 299q-112 172 -112 400zM570 454q0 -83 12.5 -128.5t37.5 -82.5q52 -80 158 -80h1q110 0 203 106q75 85 97 235l44 259q-124 80 -227 80t-176 -57t-111.5 -153t-38.5 -179z" />
<glyph unicode="A" d="M26 0l486 1464h192l488 -1464h-150l-134 399h-608l-128 -399h-146zM334 508h540l-170 533q-58 180 -101 321q-15 -46 -49.5 -158.5t-50.5 -163.5z" />
<glyph unicode="B" horiz-adv-x="1295" d="M148 0v1464h439q234 0 357 -44q110 -40 164 -111q62 -83 62 -214q0 -258 -271 -305q157 -31 236 -130t79 -234.5t-38 -215.5t-123 -126.5t-204 -65t-298 -18.5h-403zM293 837h228q190 0 243.5 7t88.5 14t56.5 17t43.5 24.5t35 33.5t24 44q19 46 19 105t-7.5 92.5t-20 58 t-34 44t-43 32.5t-54 22.5t-60 14t-68.5 7.5q-56 4 -150 4h-301v-520zM294 107h314q195 0 275 29q94 33 134 89q52 72 52 190q0 151 -67 217q-50 49 -96 63.5t-76.5 20.5t-75.5 9q-75 5 -165 5h-295v-623z" />
<glyph unicode="C" horiz-adv-x="1350" d="M114 731q0 393 163 576.5t461 183.5q199 0 338.5 -98.5t192.5 -290.5l-134 -31q-36 140 -136 221.5t-266 81.5q-249 0 -357.5 -162t-108.5 -474q0 -403 147 -542q109 -103 322 -103q311 0 413 284l125 -39q-60 -181 -203.5 -272t-342.5 -91q-310 0 -462 181.5t-152 574.5 z" />
<glyph unicode="D" horiz-adv-x="1400" d="M148 0v1464h504q316 0 472 -160q163 -167 163 -566q0 -519 -279 -665q-140 -73 -363 -73h-497zM294 114h303q155 0 259 33.5t168.5 110.5t92 192t27.5 278t-23 271.5t-78 190.5q-108 160 -390 160h-359v-1236zM700 1464zM700 1464zM700 1464zM706 1464z" />
<glyph unicode="E" horiz-adv-x="1143" d="M148 0v1464h969v-112h-823v-514h716v-115h-716v-610h834v-113h-980z" />
<glyph unicode="F" horiz-adv-x="1094" d="M148 0v1464h969v-112h-823v-522h715v-114h-715v-716h-146z" />
<glyph unicode="G" horiz-adv-x="1374" d="M114 722q0 584 365 726q112 43 270.5 43t291.5 -86.5t195 -254.5l-122 -54q-103 278 -380 278q-245 0 -356 -162t-111 -491q0 -476 239 -587q88 -41 183 -41t160.5 21.5t123.5 63t94.5 111t36.5 155.5v220h-372v125h516v-208l-10 -581h-93l-32 191q-57 -95 -167.5 -155 t-244.5 -60q-587 0 -587 746z" />
<glyph unicode="H" horiz-adv-x="1457" d="M148 0v1464h146v-628h870v628h145v-1464h-145v720h-870v-720h-146z" />
<glyph unicode="I" horiz-adv-x="464" d="M163 0v1464h146v-1464h-146z" />
<glyph unicode="J" horiz-adv-x="954" d="M21 334l130 35q31 -138 91 -207t175 -69q119 0 173 66q57 67 67 143q16 111 16 239v923h145v-920q0 -294 -92.5 -431.5t-320.5 -137.5q-313 0 -384 359z" />
<glyph unicode="K" horiz-adv-x="1252" d="M148 0v1466h146v-740l709 740h177l-515 -540l579 -926h-167l-515 828l-268 -275v-553h-146z" />
<glyph unicode="L" horiz-adv-x="1020" d="M148 0v1464h146v-1351h747v-113h-893z" />
<glyph unicode="M" horiz-adv-x="1645" d="M148 0v1463h211l467 -1058l480 1057h191v-1462h-134v1275l-475 -1025h-135l-466 1031v-1281h-139z" />
<glyph unicode="N" horiz-adv-x="1491" d="M148 0v1464h163l903 -1243v1243h129v-1464h-132l-930 1290v-1290h-133z" />
<glyph unicode="O" horiz-adv-x="1449" d="M114 737.5q0 202.5 41.5 348t121.5 234t190.5 130t256 41.5t256 -42t191.5 -130q164 -178 164 -578t-155 -583t-458 -183q-455 0 -568 412q-40 148 -40 350.5zM267 741q0 -337 104 -492.5t352.5 -155.5t352.5 154t104 493q0 378 -144 524q-109 110 -314 110 q-104 0 -182.5 -29t-130 -81.5t-83.5 -132.5q-59 -147 -59 -390z" />
<glyph unicode="P" horiz-adv-x="1253" d="M148 0v1464h431q358 0 505 -89.5t147 -311.5q0 -197 -102 -297q-95 -93 -338 -119q-112 -12 -271 -12h-222v-635h-150zM304 748h272q218 0 308 28.5t126 63.5t54.5 87.5t18.5 127.5t-19 126.5t-55.5 85t-102.5 51.5q-117 32 -350 32h-252v-602z" />
<glyph unicode="Q" horiz-adv-x="1449" d="M114 740q0 577 354 710q110 41 255.5 41t256 -42t191.5 -130q164 -178 164 -578q0 -467 -219 -647l258 -357l-108 -82l-250 375q-119 -55 -280 -55t-271 42t-190 132q-161 181 -161 591zM267 741q0 -337 104 -492.5t352.5 -155.5t352.5 154t104 493q0 378 -144 524 q-109 110 -314 110q-104 0 -182.5 -29t-130 -81.5t-83.5 -132.5q-59 -147 -59 -390z" />
<glyph unicode="R" horiz-adv-x="1286" d="M148 0v1464h529q285 0 411 -94.5t126 -294.5q0 -150 -77.5 -243.5t-238.5 -136.5l340 -695h-156l-332 673h-457v-673h-145zM293 786h351q240 0 336 76q85 68 85 211q0 208 -171 259q-84 24 -226 24h-375v-570z" />
<glyph unicode="S" horiz-adv-x="1216" d="M45 373l123 53q89 -325 456 -325q193 0 299 91q82 69 82 196q0 64 -34 134q-12 24 -48 50t-57 40.5t-81 38.5q-150 60 -220 80q-178 62 -248 101q-186 103 -186 284q0 91 41 163t110 115q140 88 326.5 88t309 -59t209.5 -192l-108 -80q-59 104 -159 158.5t-239 54.5 t-238 -58t-99 -178q0 -157 240 -236q39 -13 98 -32t108.5 -38t92.5 -36.5t95 -43.5t84 -48.5t65 -54.5t51 -67q40 -81 40 -179q0 -197 -147.5 -307.5t-395.5 -110.5q-247 0 -410 126q-129 99 -160 272z" />
<glyph unicode="T" horiz-adv-x="1119" d="M9 1352v113h1101v-113h-474v-1352h-153v1352h-474z" />
<glyph unicode="U" horiz-adv-x="1346" d="M123 574v890h160v-866q0 -191 35 -279t78 -130t113.5 -66.5t166.5 -24.5t166 24.5t112.5 66.5t67.5 107q44 112 44 302v866h157v-883q0 -313 -135 -459.5t-414.5 -146.5t-415 143.5t-135.5 455.5z" />
<glyph unicode="V" horiz-adv-x="1164" d="M12 1464h155l293 -868q25 -71 126 -380q50 150 130 380l288 868h148l-501 -1464h-138z" />
<glyph unicode="W" horiz-adv-x="1797" d="M12 1462h152q199 -719 256.5 -951.5t69.5 -276.5l375 1228h104q51 -189 170 -609t177 -636q48 177 158 600.5t172 643.5l139 1l-415 -1462h-126q-323 1134 -337 1187l-367 -1187h-113z" />
<glyph unicode="X" horiz-adv-x="1245" d="M6 0l534 763l-489 701h175l400 -575l403 575h166l-489 -697l533 -767h-173l-446 641l-447 -641h-167z" />
<glyph unicode="Y" horiz-adv-x="1162" d="M-4 1464h158l428 -782l427 782h157l-512 -916v-548h-146v549z" />
<glyph unicode="Z" horiz-adv-x="1176" d="M47 0v98l898 1258h-815v108h1006v-81l-908 -1276h913l-7 -107h-1087z" />
<glyph unicode="[" horiz-adv-x="708" d="M132 -52v1532h458v-106h-313v-1319h313v-107h-458z" />
<glyph unicode="\" horiz-adv-x="632" d="M46 1464h145l397 -1469h-145z" />
<glyph unicode="]" horiz-adv-x="707" d="M119 -52v107h312v1319h-312v106h457v-1532h-457z" />
<glyph unicode="^" horiz-adv-x="1053" d="M103 100l366 899h126l355 -899h-152l-273 737l-284 -737h-138z" />
<glyph unicode="_" horiz-adv-x="870" d="M99 -1h651v-98h-651v98z" />
<glyph unicode="`" horiz-adv-x="496" d="M47 1492h195l205 -319l-94 -1z" />
<glyph unicode="a" horiz-adv-x="1019" d="M90 228.5q0 -111.5 85.5 -182t213.5 -70.5q194 0 365 140l17 -116h117v673q0 371 -376 371q-257 0 -380 -156q85 -80 85 -81q103 128 287 128q132 0 187 -62.5t55 -229.5v-42l-99 -15q-269 -40 -327.5 -64t-105.5 -49.5t-69 -56.5q-55 -76 -55 -187.5zM224 265 q0 75 48 115q55 43 126 61q110 28 250 49l98 15v-286q-173 -146 -332 -146q-190 0 -190 192z" />
<glyph unicode="b" horiz-adv-x="1078" d="M125 0h113l19 161q37 -89 124.5 -137t198.5 -48q193 0 298.5 143.5t105.5 390t-104.5 390.5t-290.5 144q-108 0 -193 -45.5t-128 -133.5v628h-143v-1493zM263 522q0 261 139 364q72 54 161 54q125 0 201 -119.5t76 -311t-73.5 -312t-201.5 -120.5q-302 0 -302 445z" />
<glyph unicode="c" horiz-adv-x="981" d="M92 509q0 328 200 465q102 70 246 70q213 0 314 -161q39 -63 59 -150l-119 -32q-32 122 -91.5 180.5t-156.5 58.5q-154 0 -230.5 -114.5t-76.5 -313.5q0 -312 161 -400q57 -31 133 -31q199 0 268 235l109 -34q-51 -230 -260 -290q-58 -16 -120 -16q-212 0 -324 145.5 t-112 387.5z" />
<glyph unicode="d" horiz-adv-x="1066" d="M90 508q0 245 102 390.5t290 145.5q229 0 310 -181v611h143v-1474h-114l-19 172q-39 -90 -124.5 -143t-191.5 -53q-184 0 -290 143.5t-106 388.5zM235 506.5q0 -192.5 72 -309t197 -116.5q159 0 229 109q65 101 65 309q0 272 -125 381q-68 60 -171 60q-127 0 -197 -120.5 t-70 -313z" />
<glyph unicode="e" horiz-adv-x="1027" d="M92 520.5q0 230.5 116.5 377t323.5 146.5q302 0 383 -290q24 -86 24 -155t-3 -95h-699q0 -177 69 -296q73 -127 231 -127q201 0 258 177l110 -24q-23 -85 -81 -144q-109 -112 -283 -114h-4q-113 0 -200.5 44t-140.5 120q-104 150 -104 380.5zM240 597h562 q-2 344 -274 344q-193 0 -262 -211q-20 -61 -26 -133z" />
<glyph unicode="f" horiz-adv-x="623" d="M44 917v106h173v117q0 171 53 251t181 80q81 0 156 -41l-34 -92q-72 27 -105 27t-50.5 -6.5t-28.5 -23t-17 -32t-9 -47.5q-4 -42 -4 -119v-114h200v-106h-200v-918h-142v918h-173z" />
<glyph unicode="g" horiz-adv-x="1077" d="M94 526q0 315 184 450q93 68 224 68q199 0 327 -153l8 132h114v-1003q0 -199 -109.5 -324t-314.5 -125q-266 0 -363 162l83 79q82 -132 287 -132q143 0 213.5 91t70.5 257v102q-117 -154 -311.5 -154t-303.5 151.5t-109 398.5zM236 505q0 -190 74.5 -307t202.5 -117 q158 0 237 121q68 105 68 307v34q0 268 -146 355q-69 42 -148 42t-135 -34.5t-89 -93.5q-64 -117 -64 -307z" />
<glyph unicode="h" horiz-adv-x="1101" d="M130 0v1473h142v-611q117 182 351 182q331 0 355 -372q2 -40 2 -89v-583h-142v594q0 171 -52.5 258.5t-183.5 87.5q-209 0 -287 -192q-43 -107 -43 -265v-483h-142z" />
<glyph unicode="i" horiz-adv-x="410" d="M135 1242v179h141v-179h-141zM137 0v1023h142v-1023h-142z" />
<glyph unicode="j" horiz-adv-x="482" d="M-25 -284l24 107q84 -31 125 -31q90 0 90 117v1114h142v-1035q0 -160 -30 -217.5t-74 -76.5t-125.5 -19t-151.5 41zM216 1242v179h141v-179h-141z" />
<glyph unicode="k" horiz-adv-x="1008" d="M130 0v1477h141v-966l526 512h162l-381 -372l440 -651h-160l-373 565l-213 -196v-369h-142z" />
<glyph unicode="l" horiz-adv-x="419" d="M134 0v1474h142v-1474h-142z" />
<glyph unicode="m" horiz-adv-x="1663" d="M126 0v1023h137l4 -162q107 183 326 183q114 0 186 -56t100 -156q51 107 144.5 159.5t188 52.5t154 -29t93 -72.5t53.5 -109.5q30 -103 30 -257v-576h-142v607q0 247 -104 309q-40 24 -111 24t-140 -52t-105 -131.5t-36 -165.5v-591h-142v607q0 161 -45 247t-143 86 t-167 -53.5t-104 -134t-35 -169.5v-583h-142z" />
<glyph unicode="n" horiz-adv-x="1086" d="M127 0v1023h138v-193q53 154 253 202q53 12 108.5 12t104 -11t82.5 -32.5t60 -47t42 -62.5t26.5 -70.5t15.5 -78.5q8 -72 8 -158v-584h-142v603q0 200 -65 271q-53 56 -142.5 56t-148 -22t-96 -60t-60.5 -94q-42 -102 -42 -255v-499h-142z" />
<glyph unicode="o" horiz-adv-x="1064" d="M92 512.5q0 259.5 121 395.5t319 136t319 -135.5t121 -394.5t-118.5 -398.5t-321.5 -139.5t-321.5 138.5t-118.5 398zM237 513q0 -323 175 -407q53 -25 120.5 -25t120 25t85 65.5t53.5 97.5q37 100 37 204t-8.5 163t-29.5 116t-53.5 97.5t-85 65.5t-128 25t-135.5 -36.5 t-92 -100.5q-59 -121 -59 -290z" />
<glyph unicode="p" horiz-adv-x="1061" d="M131 -350h142v504q44 -86 123 -132t194 -46h2q117 1 206 75q171 142 171 469q0 227 -94 371q-100 153 -306.5 153t-305.5 -186l-10 165h-122v-1373zM270 519q0 241 78 337q68 84 201 84t204.5 -115.5t71.5 -313.5t-71 -314t-195 -116q-289 0 -289 438z" />
<glyph unicode="q" horiz-adv-x="1057" d="M92 518q0 315 172 454q90 72 217 72q235 0 316 -182l15 161h117v-1373h-143v505q-88 -179 -307 -179q-126 0 -215 72q-172 141 -172 470zM237 510.5q0 -196.5 69.5 -313t191.5 -116.5q290 0 290 420q0 252 -81 353q-70 86 -199 86t-200 -116.5t-71 -313z" />
<glyph unicode="r" horiz-adv-x="584" d="M122 0v1023h138v-192q28 69 81 115q91 78 225 78v-129q-230 0 -286 -228q-16 -62 -16 -135v-532h-142z" />
<glyph unicode="s" horiz-adv-x="929" d="M67 225l108 44q36 -98 100 -142t183 -44q263 0 263 176q0 96 -60 135.5t-253 79.5q-183 38 -248 110q-58 65 -58 188.5t104.5 197.5t257 74t238.5 -45t139 -153q-97 -55 -97 -56q-34 78 -95 112.5t-161 34.5q-252 0 -252 -178q0 -120 178 -161q35 -8 87 -18 q174 -32 261.5 -99.5t87.5 -206.5t-101 -218.5t-304 -79.5q-216 0 -319 130q-40 51 -59 119z" />
<glyph unicode="t" horiz-adv-x="644" d="M38 924v99h162v327l133 37v-364h224v-99h-224v-663q0 -170 138 -170q46 0 123 34l24 -93q-75 -48 -191.5 -48t-176 80.5t-59.5 260.5v599h-153z" />
<glyph unicode="u" horiz-adv-x="1118" d="M121 436v587h142v-617q0 -158 49 -238.5t171 -80.5q205 0 289 173q41 84 41 176v587h142v-1023h-138v192q-40 -106 -142.5 -161t-192 -55t-142 15.5t-87 40t-60 63t-39 75.5t-21.5 88q-12 75 -12 178z" />
<glyph unicode="v" horiz-adv-x="952" d="M23 1023h152l301 -872l312 872h138l-394 -1023h-126z" />
<glyph unicode="w" horiz-adv-x="1487" d="M21 1023h152l249 -846l278 846h94l262 -845l267 845h140l-348 -1023h-127l-246 800l-264 -800h-127z" />
<glyph unicode="x" horiz-adv-x="966" d="M31 0l374 514l-371 509h154l294 -417l294 417h150l-368 -505l380 -518h-154l-303 420l-300 -420h-150z" />
<glyph unicode="y" horiz-adv-x="985" d="M34 1023h146l57 -147q57 -146 137 -351t124 -314q86 224 317 812h140q-69 -175 -198.5 -496t-169 -421t-66 -156.5t-63.5 -113.5t-76 -88q-86 -68 -213 -68q-53 0 -105 14l15 113q46 -7 88 -7q169 0 236 197l23 67z" />
<glyph unicode="z" horiz-adv-x="878" d="M66 0v94l601 825h-581v104h750v-95l-609 -825h607v-103h-768z" />
<glyph unicode="{" horiz-adv-x="644" d="M35 660v94q83 6 115 50q28 36 34 62t8.5 39.5t4 42t1.5 41.5v44q0 208 11 251t25 84.5t34.5 62t51 46.5t70.5 38q98 29 218 29v-90q-92 0 -122 -10t-48 -15.5t-33 -24.5t-24 -30.5t-15.5 -44t-9.5 -52t-5 -68t-2 -77.5v-99q0 -147 -33.5 -225.5t-125.5 -100.5 q92 -22 125.5 -100.5t33.5 -258.5t14.5 -256t70.5 -104t174 -28v-90q-210 0 -288 67q-31 26 -51.5 46.5t-34.5 62t-21 69t-11 82.5q-4 71 -4 143v85q0 117 -27 157q-28 43 -47 52q-41 22 -89 26z" />
<glyph unicode="|" horiz-adv-x="416" d="M135 -197v1699h146v-1699h-146z" />
<glyph unicode="}" horiz-adv-x="644" d="M36 -41v-90q210 0 288 67q31 26 51.5 46.5t34.5 62t21 69t11 82.5q4 71 4 143v85q0 116 27 157q28 43 47 52q41 22 89 26v94q-83 6 -115 49q-28 37 -34 63t-8.5 39.5t-4 42t-1.5 41.5v44q0 208 -11 251t-25 84.5t-34.5 62t-51 46.5t-70.5 38q-98 29 -218 29v-90 q92 0 122 -10t48 -15.5t33 -24.5t24 -30.5t15.5 -44t9.5 -52t5 -68t2 -78.5v-98q0 -147 33.5 -225.5t125.5 -100.5q-92 -22 -125.5 -100.5t-33.5 -258.5t-14.5 -256t-70.5 -104t-174 -28z" />
<glyph unicode="~" horiz-adv-x="962" d="M21 707h118q14 76 31.5 97t53 21t243 -62.5t292 -62.5t130.5 54.5t52 191.5h-119q-18 -95 -28 -102q-25 -18 -54 -18t-236.5 60t-251 60t-58 -0.5t-39 -5.5t-39 -13.5t-33.5 -26t-30 -42.5q-26 -60 -32 -151z" />
<glyph unicode="&#xa1;" horiz-adv-x="426" d="M122 0l52 1160h76l57 -1160h-185zM139 1268v197h164v-197h-164z" />
<glyph unicode="&#xa2;" horiz-adv-x="993" d="M94 509q0 -309 174 -448q89 -71 216 -83v-186h93v186q203 23 291 202q25 49 38 109l-101 34q-63 -215 -228 -239v854q164 -20 221 -237l111 32q-55 236 -248 294q-40 12 -84 15v211h-93v-211q-127 -13 -216 -86q-174 -141 -174 -447zM237 512q0 179 61.5 290.5 t185.5 132.5v-850q-83 14 -140 73q-107 111 -107 354z" />
<glyph unicode="&#xa3;" horiz-adv-x="1168" d="M66 695h176q18 -137 18 -225q0 -197 -104 -410l76 -90q286 72 424.5 72t321.5 -43l28 130q-145 38 -261 38t-214.5 -14t-223.5 -58q68 133 78 227t10 149.5t-14 223.5h392v102h-399q-19 171 -19 210q0 193 71.5 284.5t224.5 91.5q137 0 194 -116q26 -53 39 -133l119 18 q-25 167 -108.5 252t-249.5 85q-430 0 -430 -501l18 -191h-167v-102z" />
<glyph unicode="&#xa4;" horiz-adv-x="1068" d="M78 997l158 -138q-53 -88 -53 -216.5t81 -232.5l-138 -157l64 -56l134 153q89 -66 225 -66t231 97l154 -135l56 63l-159 140q52 91 52 218t-78 229l137 156l-64 56l-133 -152q-86 67 -224.5 67t-233.5 -97l-153 135zM303 655q0 111 62.5 190.5t169.5 79.5t170.5 -79 t63.5 -188.5t-64.5 -191t-170.5 -81.5t-168.5 79.5t-62.5 190.5z" />
<glyph unicode="&#xa5;" horiz-adv-x="1358" d="M94 1436h158l428 -754l427 754h157l-465 -806h203v-86h-250v-124h250v-86h-250v-334h-146v334h-258v86h258v124h-258v86h211z" />
<glyph unicode="&#xa6;" horiz-adv-x="416" d="M135 -198v631h146v-631h-146zM135 883v621h146v-621h-146z" />
<glyph unicode="&#xa7;" horiz-adv-x="1005" d="M127 265q31 -181 204 -257q92 -41 204 -41q180 0 271.5 73t91.5 213.5t-115 217.5q90 143 90 239t-69 156.5t-229 122t-188 75.5q-87 46 -87 122v3q4 182 235 182q100 0 156 -32t102 -118l91 57q-55 109 -138.5 154.5t-234.5 45.5t-247.5 -73.5t-96.5 -209.5 q0 -83 28.5 -130t85.5 -81q-107 -133 -107 -235t65.5 -162t236 -121.5t220.5 -87.5q72 -38 74 -135v-6q0 -80 -61 -121.5t-169 -41.5q-246 0 -311 228zM301 736q0 80 90 195q35 -14 93.5 -35.5t91 -35t49 -22t39 -21.5t33.5 -24t22 -25q20 -27 20 -65q0 -73 -62 -179 q-243 65 -335 142q-41 33 -41 70z" />
<glyph unicode="&#xa8;" horiz-adv-x="860" d="M135 1191v174h166v-174h-166zM514 1191v174h166v-174h-166z" />
<glyph unicode="&#xa9;" horiz-adv-x="1702" d="M123 774.5q0 196.5 98 364.5t265.5 266t364 98t364.5 -98t266 -266t98 -364.5t-98 -364t-266 -265.5t-364.5 -98t-364 98t-265.5 265.5t-98 364zM176 750.5q0 -159.5 90.5 -314.5t245.5 -245.5t337 -90.5t337.5 90.5t246 245.5t90.5 314.5t-53.5 285t-143.5 216.5 t-214.5 145.5t-261 54.5t-261.5 -54.5t-215.5 -145.5t-144 -216.5t-53.5 -285zM517 794.5q0 232.5 90 342.5t249 110q217 0 273 -232l-71 -18q-41 180 -205 180q-255 0 -255 -378q0 -198 58 -291t207 -93t203 169l66 -23q-65 -217 -282 -217q-165 0 -249 109t-84 341.5z" />
<glyph unicode="&#xaa;" horiz-adv-x="946" d="M152 201q0 -106 70 -163.5t171 -57.5q151 0 283 117l14 -97h104v544q0 162 -77.5 244.5t-224.5 82.5q-76 0 -166 -37.5t-144 -96.5q78 -70 78 -71q46 45 109 74.5t133 29.5t119.5 -47.5t49.5 -149.5v-66l-77 -12q-158 -26 -203.5 -40.5t-79.5 -28t-54.5 -28t-42.5 -35 t-34 -43.5q-28 -52 -28 -119zM269 229q0 74 77 112t249 65l76 13v-227q-139 -124 -275 -124q-127 0 -127 161z" />
<glyph unicode="&#xab;" horiz-adv-x="946" d="M51 552v197l445 301v-141l-347 -259l347 -257v-142zM449 552v197l445 301v-141l-347 -259l347 -257v-142z" />
<glyph unicode="&#xac;" horiz-adv-x="1024" d="M135 670h668v-335h86v421h-754v-86z" />
<glyph unicode="&#xad;" horiz-adv-x="724" d="M100 400v111h500v-111h-500z" />
<glyph unicode="&#xae;" horiz-adv-x="1702" d="M123 774.5q0 196.5 98 364.5t265.5 266t364 98t364.5 -98t266 -266t98 -364.5t-98 -364t-266 -265.5t-364.5 -98t-364 98t-265.5 265.5t-98 364zM176 773q0 -182 90.5 -337t245.5 -245.5t337 -90.5t337.5 90.5t246 245.5t90.5 337t-90.5 337.5t-246 246t-337.5 90.5 t-337 -90.5t-245.5 -246t-90.5 -337.5zM578 381v867h279q322 0 322 -231q0 -168 -179 -224q17 -54 144 -327l42 -87h-87l-183 400h-255v-398h-83zM664 846h185q138 0 192 44q51 42 51 125q0 152 -175 167q-30 2 -69 2h-184v-338z" />
<glyph unicode="&#xaf;" horiz-adv-x="724" d="M135 1219v110h454v-110h-454z" />
<glyph unicode="&#xb0;" horiz-adv-x="483" d="M0 1268q0 -98 66.5 -167t175 -69t175 69.5t66.5 167t-66.5 166.5t-175 69t-175 -69t-66.5 -167zM98 1267.5q0 59.5 38 105t102.5 45.5t102.5 -45.5t38 -105t-37 -105t-102.5 -45.5t-103.5 45.5t-38 105z" />
<glyph unicode="&#xb1;" horiz-adv-x="860" d="M129 247v86h601v-86h-601zM130 673v100h249v250h102v-250h249v-100h-249v-250h-102v250h-249z" />
<glyph unicode="&#xb2;" horiz-adv-x="1230" d="M364 1316q24 -10 71 -35l19 -10q13 59 60 92t103 33t94.5 -33t38.5 -94v-3q0 -68 -93 -144q-105 -85 -160 -136q-108 -102 -112 -207h475v80h-330q39 67 156 152q42 31 82 67q90 83 90 191t-71.5 165t-162 57t-160 -44.5t-100.5 -130.5z" />
<glyph unicode="&#xb3;" horiz-adv-x="772" d="M130 910q20 -82 89 -123t168.5 -41.5t166 63.5t61.5 151q-8 141 -156 184q58 21 90 66.5t32 107t-58.5 112.5t-142.5 51t-146.5 -32.5t-83.5 -90.5l73 -51q20 44 59 66.5t87.5 22.5t75 -26.5t26.5 -71.5q0 -114 -153 -116v-87q188 0 188 -142q0 -46 -36.5 -82.5 t-93.5 -36.5q-132 0 -168 116z" />
<glyph unicode="&#xb4;" horiz-adv-x="494" d="M49 1172l205 320h195l-308 -320h-92z" />
<glyph unicode="&#xb5;" horiz-adv-x="1122" d="M119 -350h142v407q31 -35 87 -58t119 -23q245 0 362 183l4 -159h137v1023h-142v-587q0 -83 -33.5 -150t-70.5 -106q-85 -93 -219.5 -93t-185.5 81t-51 238v617h-147v-542h-2v-831z" />
<glyph unicode="&#xb6;" horiz-adv-x="1038" d="M87 1135q0 187 159 265q130 64 380 64h368v-115h-170v-1349h-126v799h-103v-799h-130v799q-162 0 -270 95t-108 241z" />
<glyph unicode="&#xb7;" horiz-adv-x="434" d="M135 543v215h164v-215h-164z" />
<glyph unicode="&#xb8;" horiz-adv-x="435" d="M150 -10h200v-179q0 -80 -34 -140.5t-102 -60.5q-21 0 -42 9v65q30 -8 37 -8q22 0 31 31t9 119h-99v164z" />
<glyph unicode="&#xb9;" horiz-adv-x="546" d="M124 1397l21 -90l117 58v-596h113v695h-103z" />
<glyph unicode="&#xba;" horiz-adv-x="1000" d="M123 427q0 -215 103.5 -331t273.5 -116t273.5 117t103.5 332t-105.5 328.5t-271.5 113.5t-271.5 -114.5t-105.5 -329.5zM254 428q0 138 56 237q62 108 190 108q83 0 140 -51q107 -96 107 -296q0 -138 -57 -239q-62 -108 -190 -108q-63 0 -111.5 29.5t-76.5 79.5 q-58 101 -58 240z" />
<glyph unicode="&#xbb;" horiz-adv-x="946" d="M53 250v141l347 259l-347 257v142l445 -301v-197zM451 250v141l347 259l-347 257v142l445 -301v-197z" />
<glyph unicode="&#xbf;" horiz-adv-x="1099" d="M127 0zM127 375q0 -77 25.5 -145.5t76.5 -126.5q112 -127 342 -127q310 0 462 241l-99 73q-130 -203 -354 -203q-233 0 -292 186q-15 49 -15 112t22 122t65 117t92 117q143 169 250 368h-149q-89 -152 -241 -335q-128 -155 -156.5 -238.5t-28.5 -160.5zM554 1252h164v215 h-164v-215z" />
<glyph unicode="&#xc0;" d="M26 0l486 1464h192l488 -1464h-150l-134 399h-608l-128 -399h-146zM26 0zM313 1933h195l205 -319l-94 -1zM334 508h540l-170 533q-58 180 -101 321q-15 -46 -49.5 -158.5t-50.5 -163.5z" />
<glyph unicode="&#xc1;" d="M26 0l486 1464h192l488 -1464h-150l-134 399h-608l-128 -399h-146zM26 0zM334 508h540l-170 533q-58 180 -101 321q-15 -46 -49.5 -158.5t-50.5 -163.5zM505 1613l205 320h195l-308 -320h-92z" />
<glyph unicode="&#xc2;" d="M26 0l486 1464h192l488 -1464h-150l-134 399h-608l-128 -399h-146zM26 0zM334 508h540l-170 533q-58 180 -101 321q-15 -46 -49.5 -158.5t-50.5 -163.5zM342 1613l175 320h195l175 -320h-92l-181 218l-180 -218h-92z" />
<glyph unicode="&#xc3;" d="M26 0l486 1464h192l488 -1464h-150l-134 399h-608l-128 -399h-146zM26 0zM334 508h540l-170 533q-58 180 -101 321q-15 -46 -49.5 -158.5t-50.5 -163.5zM334 1682q0 -26 2 -41h96q0 43 13.5 65.5t33.5 22t118.5 -43t151.5 -42.5t94 38t41 120q0 11 -2 35h-97 q0 -96 -39 -96q-21 0 -131 46t-153 46q-128 0 -128 -150z" />
<glyph unicode="&#xc4;" d="M26 0l486 1464h192l488 -1464h-150l-134 399h-608l-128 -399h-146zM26 0zM314 1632v174h166v-174h-166zM334 508h540l-170 533q-58 180 -101 321q-15 -46 -49.5 -158.5t-50.5 -163.5zM693 1632v174h166v-174h-166z" />
<glyph unicode="&#xc5;" d="M26 0l486 1464h192l488 -1464h-150l-134 399h-608l-128 -399h-146zM26 0zM334 508h540l-170 533q-58 180 -101 321q-15 -46 -49.5 -158.5t-50.5 -163.5zM385 1815q0 -88 58 -151t164 -63t166 64t60 152t-59.5 152t-165.5 64t-164.5 -65t-58.5 -153zM483 1817 q0 52 32.5 92t90.5 40t90.5 -40t32.5 -92t-32.5 -92.5t-90.5 -40.5t-90.5 40.5t-32.5 92.5z" />
<glyph unicode="&#xc6;" horiz-adv-x="2030" d="M-37 0l907 1464h1135v-112h-887v-514h725l-1 -115h-724v-610h897v-113h-1044v399h-600l-247 -399h-161zM432 508h542v898q3 -3 -59 -106t-83 -133q-353 -581 -400 -659z" />
<glyph unicode="&#xc7;" horiz-adv-x="1338" d="M114 0zM114 731q0 393 163 576.5t461 183.5q199 0 338.5 -98.5t192.5 -290.5l-134 -31q-36 140 -136 221.5t-266 81.5q-249 0 -357.5 -162t-108.5 -474q0 -403 147 -542q109 -103 322 -103q311 0 413 284l125 -39q-60 -181 -203.5 -272t-342.5 -91q-310 0 -462 181.5 t-152 574.5zM623 -10h200v-179q0 -80 -34 -140.5t-102 -60.5q-21 0 -42 9v65q30 -8 37 -8q22 0 31 31t9 119h-99v164z" />
<glyph unicode="&#xc8;" horiz-adv-x="1143" d="M148 0v1464h969v-112h-823v-514h716v-115h-716v-610h834v-113h-980zM148 0zM372 1933h195l205 -319l-94 -1z" />
<glyph unicode="&#xc9;" horiz-adv-x="1143" d="M148 0v1464h969v-112h-823v-514h716v-115h-716v-610h834v-113h-980zM148 0zM481 1613l205 320h195l-308 -320h-92z" />
<glyph unicode="&#xca;" horiz-adv-x="1143" d="M148 0v1464h969v-112h-823v-514h716v-115h-716v-610h834v-113h-980zM148 0zM386 1613l175 320h195l175 -320h-92l-181 218l-180 -218h-92z" />
<glyph unicode="&#xcb;" horiz-adv-x="1143" d="M148 0v1464h969v-112h-823v-514h716v-115h-716v-610h834v-113h-980zM148 0zM377 1632v174h166v-174h-166zM756 1632v174h166v-174h-166z" />
<glyph unicode="&#xcc;" horiz-adv-x="464" d="M-97 1933h195l205 -319l-94 -1zM0 0zM163 0v1464h146v-1464h-146z" />
<glyph unicode="&#xcd;" horiz-adv-x="464" d="M153 0zM153 1613l205 320h195l-308 -320h-92zM163 0v1464h146v-1464h-146z" />
<glyph unicode="&#xce;" horiz-adv-x="464" d="M-34 1613l175 320h195l175 -320h-92l-181 218l-180 -218h-92zM0 0zM163 0v1464h146v-1464h-146z" />
<glyph unicode="&#xcf;" horiz-adv-x="464" d="M-42 1632v174h166v-174h-166zM0 0zM163 0v1464h146v-1464h-146zM337 1632v174h166v-174h-166z" />
<glyph unicode="&#xd0;" horiz-adv-x="1391" d="M0 702v86h140v676h504q159 0 272.5 -37.5t194.5 -122.5q159 -165 159 -564t-150 -569.5t-483 -170.5h-497v702h-140zM286 114h303q155 0 257.5 33.5t165.5 110.5t89 191.5t26 262.5t-13 240t-46 169.5t-88 126.5q-113 102 -335 102h-359v-562h264v-86h-264v-588z" />
<glyph unicode="&#xd1;" horiz-adv-x="1491" d="M148 0v1464h163l903 -1243v1243h129v-1464h-132l-930 1290v-1290h-133zM148 0zM498 1682q0 -26 2 -41h96q0 43 13.5 65.5t33.5 22t118.5 -43t151.5 -42.5t94 38t41 120q0 11 -2 35h-97q0 -96 -39 -96q-21 0 -131 46t-153 46q-128 0 -128 -150z" />
<glyph unicode="&#xd2;" horiz-adv-x="1449" d="M114 0zM114 737.5q0 202.5 41.5 348t121.5 234t190.5 130t256 41.5t256 -42t191.5 -130q164 -178 164 -578t-155 -583t-458 -183q-455 0 -568 412q-40 148 -40 350.5zM267 741q0 -337 104 -492.5t352.5 -155.5t352.5 154t104 493q0 378 -144 524q-109 110 -314 110 q-104 0 -182.5 -29t-130 -81.5t-83.5 -132.5q-59 -147 -59 -390zM448 1933h195l205 -319l-94 -1z" />
<glyph unicode="&#xd3;" horiz-adv-x="1449" d="M114 0zM114 737.5q0 202.5 41.5 348t121.5 234t190.5 130t256 41.5t256 -42t191.5 -130q164 -178 164 -578t-155 -583t-458 -183q-455 0 -568 412q-40 148 -40 350.5zM267 741q0 -337 104 -492.5t352.5 -155.5t352.5 154t104 493q0 378 -144 524q-109 110 -314 110 q-104 0 -182.5 -29t-130 -81.5t-83.5 -132.5q-59 -147 -59 -390zM615 1613l205 320h195l-308 -320h-92z" />
<glyph unicode="&#xd4;" horiz-adv-x="1449" d="M114 0zM114 737.5q0 202.5 41.5 348t121.5 234t190.5 130t256 41.5t256 -42t191.5 -130q164 -178 164 -578t-155 -583t-458 -183q-455 0 -568 412q-40 148 -40 350.5zM267 741q0 -337 104 -492.5t352.5 -155.5t352.5 154t104 493q0 378 -144 524q-109 110 -314 110 q-104 0 -182.5 -29t-130 -81.5t-83.5 -132.5q-59 -147 -59 -390zM458 1613l175 320h195l175 -320h-92l-181 218l-180 -218h-92z" />
<glyph unicode="&#xd5;" horiz-adv-x="1449" d="M114 0zM114 737.5q0 202.5 41.5 348t121.5 234t190.5 130t256 41.5t256 -42t191.5 -130q164 -178 164 -578t-155 -583t-458 -183q-455 0 -568 412q-40 148 -40 350.5zM267 741q0 -337 104 -492.5t352.5 -155.5t352.5 154t104 493q0 378 -144 524q-109 110 -314 110 q-104 0 -182.5 -29t-130 -81.5t-83.5 -132.5q-59 -147 -59 -390zM438 1682q0 -26 2 -41h96q0 43 13.5 65.5t33.5 22t118.5 -43t151.5 -42.5t94 38t41 120q0 11 -2 35h-97q0 -96 -39 -96q-21 0 -131 46t-153 46q-128 0 -128 -150z" />
<glyph unicode="&#xd6;" horiz-adv-x="1449" d="M114 0zM114 737.5q0 202.5 41.5 348t121.5 234t190.5 130t256 41.5t256 -42t191.5 -130q164 -178 164 -578t-155 -583t-458 -183q-455 0 -568 412q-40 148 -40 350.5zM267 741q0 -337 104 -492.5t352.5 -155.5t352.5 154t104 493q0 378 -144 524q-109 110 -314 110 q-104 0 -182.5 -29t-130 -81.5t-83.5 -132.5q-59 -147 -59 -390zM430 1632v174h166v-174h-166zM809 1632v174h166v-174h-166z" />
<glyph unicode="&#xd7;" horiz-adv-x="734" d="M119 626l72 72l177 -177l176 176l70 -70l-176 -176l177 -177l-72 -72l-177 177l-176 -176l-70 70l176 176z" />
<glyph unicode="&#xd8;" horiz-adv-x="1463" d="M114 740q0 -489 238 -662l-117 -238l85 -44l114 234q119 -55 288 -55q303 0 458 183t155 583q0 470 -237 645l112 228l-84 44l-110 -224q-121 57 -279.5 57t-269 -41.5t-190.5 -129.5q-163 -181 -163 -580zM267 741q0 377 143 523q108 110 330 110q123 0 221 -53 l-550 -1121q-144 144 -144 541zM489 142l549 1120q142 -146 142 -503.5t-104 -511.5t-353 -154q-140 0 -234 49z" />
<glyph unicode="&#xd9;" horiz-adv-x="1346" d="M123 0zM123 574v890h160v-866q0 -191 35 -279t78 -130t113.5 -66.5t166.5 -24.5t166 24.5t112.5 66.5t67.5 107q44 112 44 302v866h157v-883q0 -313 -135 -459.5t-414.5 -146.5t-415 143.5t-135.5 455.5zM433 1933h195l205 -319l-94 -1z" />
<glyph unicode="&#xda;" horiz-adv-x="1346" d="M123 0zM123 574v890h160v-866q0 -191 35 -279t78 -130t113.5 -66.5t166.5 -24.5t166 24.5t112.5 66.5t67.5 107q44 112 44 302v866h157v-883q0 -313 -135 -459.5t-414.5 -146.5t-415 143.5t-135.5 455.5zM527 1613l205 320h195l-308 -320h-92z" />
<glyph unicode="&#xdb;" horiz-adv-x="1346" d="M123 0zM123 574v890h160v-866q0 -191 35 -279t78 -130t113.5 -66.5t166.5 -24.5t166 24.5t112.5 66.5t67.5 107q44 112 44 302v866h157v-883q0 -313 -135 -459.5t-414.5 -146.5t-415 143.5t-135.5 455.5zM406 1613l175 320h195l175 -320h-92l-181 218l-180 -218h-92z" />
<glyph unicode="&#xdc;" horiz-adv-x="1346" d="M123 0zM123 574v890h160v-866q0 -191 35 -279t78 -130t113.5 -66.5t166.5 -24.5t166 24.5t112.5 66.5t67.5 107q44 112 44 302v866h157v-883q0 -313 -135 -459.5t-414.5 -146.5t-415 143.5t-135.5 455.5zM417 1632v174h166v-174h-166zM796 1632v174h166v-174h-166z" />
<glyph unicode="&#xdd;" horiz-adv-x="1162" d="M-4 1464h158l428 -782l427 782h157l-512 -916v-548h-146v549zM0 0zM472 1613l205 320h195l-308 -320h-92z" />
<glyph unicode="&#xde;" horiz-adv-x="1261" d="M140 0v1464h156v-270h265q454 0 579 -183q63 -91 63 -238q0 -245 -158.5 -341.5t-542.5 -96.5h-212v-335h-150zM296 449h262q271 1 384 70t113 246.5t-115.5 246t-401.5 68.5h-242v-631z" />
<glyph unicode="&#xdf;" horiz-adv-x="1199" d="M130 0v1151q0 80 37.5 146.5t100.5 108.5q130 86 308 86t271 -81t93 -208q0 -117 -92 -197q-79 -68 -145 -98q-118 -54 -118 -80v-5q0 -51 107 -101q47 -23 104 -48t114 -56.5t104 -69.5q107 -85 107 -212q0 -74 -12.5 -122.5t-51 -92.5t-108.5 -69q-150 -52 -468 -52 h-40v117q329 0 438 57q56 30 76 66.5t20 88.5t-29.5 93.5t-76.5 71.5t-104 57.5t-114 54.5t-104 56q-106 65 -106 154q0 90 128 158q53 28 107 57q128 70 128 178q0 85 -61.5 132t-178 47t-202.5 -66t-86 -182v-1140h-146z" />
<glyph unicode="&#xe0;" horiz-adv-x="1025" d="M90 0zM90 228.5q0 -111.5 85.5 -182t213.5 -70.5q194 0 365 140l17 -116h117v673q0 371 -376 371q-257 0 -380 -156q85 -80 85 -81q103 128 287 128q132 0 187 -62.5t55 -229.5v-42l-99 -15q-269 -40 -327.5 -64t-105.5 -49.5t-69 -56.5q-55 -76 -55 -187.5zM224 265 q0 75 48 115q55 43 126 61q110 28 250 49l98 15v-286q-173 -146 -332 -146q-190 0 -190 192zM253 1492h195l205 -319l-94 -1z" />
<glyph unicode="&#xe1;" horiz-adv-x="1025" d="M90 0zM90 228.5q0 -111.5 85.5 -182t213.5 -70.5q194 0 365 140l17 -116h117v673q0 371 -376 371q-257 0 -380 -156q85 -80 85 -81q103 128 287 128q132 0 187 -62.5t55 -229.5v-42l-99 -15q-269 -40 -327.5 -64t-105.5 -49.5t-69 -56.5q-55 -76 -55 -187.5zM224 265 q0 75 48 115q55 43 126 61q110 28 250 49l98 15v-286q-173 -146 -332 -146q-190 0 -190 192zM377 1172l205 320h195l-308 -320h-92z" />
<glyph unicode="&#xe2;" horiz-adv-x="1025" d="M90 0zM90 228.5q0 -111.5 85.5 -182t213.5 -70.5q194 0 365 140l17 -116h117v673q0 371 -376 371q-257 0 -380 -156q85 -80 85 -81q103 128 287 128q132 0 187 -62.5t55 -229.5v-42l-99 -15q-269 -40 -327.5 -64t-105.5 -49.5t-69 -56.5q-55 -76 -55 -187.5zM224 265 q0 75 48 115q55 43 126 61q110 28 250 49l98 15v-286q-173 -146 -332 -146q-190 0 -190 192zM241 1172l175 320h195l175 -320h-92l-181 218l-180 -218h-92z" />
<glyph unicode="&#xe3;" horiz-adv-x="1025" d="M90 0zM90 228.5q0 -111.5 85.5 -182t213.5 -70.5q194 0 365 140l17 -116h117v673q0 371 -376 371q-257 0 -380 -156q85 -80 85 -81q103 128 287 128q132 0 187 -62.5t55 -229.5v-42l-99 -15q-269 -40 -327.5 -64t-105.5 -49.5t-69 -56.5q-55 -76 -55 -187.5zM224 265 q0 75 48 115q55 43 126 61q110 28 250 49l98 15v-286q-173 -146 -332 -146q-190 0 -190 192zM238 1241q0 -26 2 -41h96q0 43 13.5 65.5t33.5 22t118.5 -43t151.5 -42.5t94 38t41 120q0 11 -2 35h-97q0 -96 -39 -96q-21 0 -131 46t-153 46q-128 0 -128 -150z" />
<glyph unicode="&#xe4;" horiz-adv-x="1025" d="M90 0zM90 228.5q0 -111.5 85.5 -182t213.5 -70.5q194 0 365 140l17 -116h117v673q0 371 -376 371q-257 0 -380 -156q85 -80 85 -81q103 128 287 128q132 0 187 -62.5t55 -229.5v-42l-99 -15q-269 -40 -327.5 -64t-105.5 -49.5t-69 -56.5q-55 -76 -55 -187.5zM224 265 q0 75 48 115q55 43 126 61q110 28 250 49l98 15v-286q-173 -146 -332 -146q-190 0 -190 192zM236 1191v174h166v-174h-166zM615 1191v174h166v-174h-166z" />
<glyph unicode="&#xe5;" horiz-adv-x="1025" d="M90 0zM90 228.5q0 -111.5 85.5 -182t213.5 -70.5q194 0 365 140l17 -116h117v673q0 371 -376 371q-257 0 -380 -156q85 -80 85 -81q103 128 287 128q132 0 187 -62.5t55 -229.5v-42l-99 -15q-269 -40 -327.5 -64t-105.5 -49.5t-69 -56.5q-55 -76 -55 -187.5zM224 265 q0 75 48 115q55 43 126 61q110 28 250 49l98 15v-286q-173 -146 -332 -146q-190 0 -190 192zM289 1374q0 -88 58 -151t164 -63t166 64t60 152t-59.5 152t-165.5 64t-164.5 -65t-58.5 -153zM387 1376q0 52 32.5 92t90.5 40t90.5 -40t32.5 -92t-32.5 -92.5t-90.5 -40.5 t-90.5 40.5t-32.5 92.5z" />
<glyph unicode="&#xe6;" horiz-adv-x="1667" d="M84 251.5q0 92.5 38.5 157.5t113 101t165 52.5t223.5 17.5t128 6q0 235 -61 298q-54 56 -168 56q-116 0 -173 -24q-74 -31 -147 -78l-70 89q169 117 385 117q129 0 216.5 -53t107.5 -159q45 99 140 155.5t204 56.5t186.5 -35t123.5 -99q91 -126 91 -338q0 -38 -3 -64 l-684 -14q0 -413 291 -413q124 0 193 77q56 62 71 115l115 -39q-42 -114 -144 -185.5t-228 -72t-221.5 56t-131.5 162.5q-68 -123 -173 -171.5t-220 -48.5t-190.5 27.5t-126.5 92t-51 157zM226 264q0 -94 63 -139t139 -45t134.5 15t105.5 43q103 63 103 180l-10 169l-141 -5 q-238 -13 -319 -70q-75 -54 -75 -148zM901 592l549 14q-1 164 -63 249.5t-196 85.5t-208 -100.5t-82 -248.5z" />
<glyph unicode="&#xe7;" horiz-adv-x="979" d="M92 0zM92 509q0 328 200 465q102 70 246 70q213 0 314 -161q39 -63 59 -150l-119 -32q-32 122 -91.5 180.5t-156.5 58.5q-154 0 -230.5 -114.5t-76.5 -313.5q0 -312 161 -400q57 -31 133 -31q199 0 268 235l109 -34q-51 -230 -260 -290q-58 -16 -120 -16 q-212 0 -324 145.5t-112 387.5zM427 -10h200v-179q0 -80 -34 -140.5t-102 -60.5q-21 0 -42 9v65q30 -8 37 -8q22 0 31 31t9 119h-99v164z" />
<glyph unicode="&#xe8;" horiz-adv-x="1020" d="M92 0zM92 520.5q0 230.5 116.5 377t323.5 146.5q302 0 383 -290q24 -86 24 -155t-3 -95h-699q0 -177 69 -296q73 -127 231 -127q201 0 258 177l110 -24q-23 -85 -81 -144q-109 -112 -283 -114h-4q-113 0 -200.5 44t-140.5 120q-104 150 -104 380.5zM240 597h562 q-2 344 -274 344q-193 0 -262 -211q-20 -61 -26 -133zM267 1492h195l205 -319l-94 -1z" />
<glyph unicode="&#xe9;" horiz-adv-x="1020" d="M92 0zM92 520.5q0 230.5 116.5 377t323.5 146.5q302 0 383 -290q24 -86 24 -155t-3 -95h-699q0 -177 69 -296q73 -127 231 -127q201 0 258 177l110 -24q-23 -85 -81 -144q-109 -112 -283 -114h-4q-113 0 -200.5 44t-140.5 120q-104 150 -104 380.5zM240 597h562 q-2 344 -274 344q-193 0 -262 -211q-20 -61 -26 -133zM426 1172l205 320h195l-308 -320h-92z" />
<glyph unicode="&#xea;" horiz-adv-x="1020" d="M92 0zM92 520.5q0 230.5 116.5 377t323.5 146.5q302 0 383 -290q24 -86 24 -155t-3 -95h-699q0 -177 69 -296q73 -127 231 -127q201 0 258 177l110 -24q-23 -85 -81 -144q-109 -112 -283 -114h-4q-113 0 -200.5 44t-140.5 120q-104 150 -104 380.5zM240 597h562 q-2 344 -274 344q-193 0 -262 -211q-20 -61 -26 -133zM270 1172l175 320h195l175 -320h-92l-181 218l-180 -218h-92z" />
<glyph unicode="&#xeb;" horiz-adv-x="1020" d="M92 0zM92 520.5q0 230.5 116.5 377t323.5 146.5q302 0 383 -290q24 -86 24 -155t-3 -95h-699q0 -177 69 -296q73 -127 231 -127q201 0 258 177l110 -24q-23 -85 -81 -144q-109 -112 -283 -114h-4q-113 0 -200.5 44t-140.5 120q-104 150 -104 380.5zM240 597h562 q-2 344 -274 344q-193 0 -262 -211q-20 -61 -26 -133zM250 1191v174h166v-174h-166zM629 1191v174h166v-174h-166z" />
<glyph unicode="&#xec;" horiz-adv-x="411" d="M-78 1492h195l205 -319l-94 -1zM0 0zM140 0v1023h142v-1023h-142z" />
<glyph unicode="&#xed;" horiz-adv-x="411" d="M134 0zM134 1172l205 320h195l-308 -320h-92zM140 0v1023h142v-1023h-142z" />
<glyph unicode="&#xee;" horiz-adv-x="411" d="M-60 1172l175 320h195l175 -320h-92l-181 218l-180 -218h-92zM0 0zM140 0v1023h142v-1023h-142z" />
<glyph unicode="&#xef;" horiz-adv-x="411" d="M-63 1191v174h166v-174h-166zM0 0zM140 0v1023h142v-1023h-142zM316 1191v174h166v-174h-166z" />
<glyph unicode="&#xf0;" horiz-adv-x="1053" d="M94 454q0 106 34.5 193.5t91.5 143.5q121 117 290.5 117t299.5 -134q-14 104 -72 214.5t-120 166.5l-197 -129l-53 75l191 124q-151 114 -390 114v93q291 0 479 -149l206 135l53 -75l-192 -125q102 -106 173 -297.5t71 -391.5q0 -245 -101 -395q-108 -159 -340 -159 q-104 0 -186.5 40t-133.5 107q-104 138 -104 332zM235 440q0 -165 79 -260.5t217.5 -95.5t215 115.5t76.5 311.5q0 109 -7 139q-135 148 -293 148q-123 0 -205.5 -96.5t-82.5 -261.5z" />
<glyph unicode="&#xf1;" horiz-adv-x="1085" d="M127 0v1023h138v-193q53 154 253 202q53 12 108.5 12t104 -11t82.5 -32.5t60 -47t42 -62.5t26.5 -70.5t15.5 -78.5q8 -72 8 -158v-584h-142v603q0 200 -65 271q-53 56 -142.5 56t-148 -22t-96 -60t-60.5 -94q-42 -102 -42 -255v-499h-142zM127 0zM298 1241q0 -26 2 -41 h96q0 43 13.5 65.5t33.5 22t118.5 -43t151.5 -42.5t94 38t41 120q0 11 -2 35h-97q0 -96 -39 -96q-21 0 -131 46t-153 46q-128 0 -128 -150z" />
<glyph unicode="&#xf2;" horiz-adv-x="1064" d="M92 0zM92 512.5q0 259.5 121 395.5t319 136t319 -135.5t121 -394.5t-118.5 -398.5t-321.5 -139.5t-321.5 138.5t-118.5 398zM237 513q0 -323 175 -407q53 -25 120.5 -25t120 25t85 65.5t53.5 97.5q37 100 37 204t-8.5 163t-29.5 116t-53.5 97.5t-85 65.5t-128 25 t-135.5 -36.5t-92 -100.5q-59 -121 -59 -290zM263 1492h195l205 -319l-94 -1z" />
<glyph unicode="&#xf3;" horiz-adv-x="1064" d="M92 0zM92 512.5q0 259.5 121 395.5t319 136t319 -135.5t121 -394.5t-118.5 -398.5t-321.5 -139.5t-321.5 138.5t-118.5 398zM237 513q0 -323 175 -407q53 -25 120.5 -25t120 25t85 65.5t53.5 97.5q37 100 37 204t-8.5 163t-29.5 116t-53.5 97.5t-85 65.5t-128 25 t-135.5 -36.5t-92 -100.5q-59 -121 -59 -290zM395 1172l205 320h195l-308 -320h-92z" />
<glyph unicode="&#xf4;" horiz-adv-x="1064" d="M92 0zM92 512.5q0 259.5 121 395.5t319 136t319 -135.5t121 -394.5t-118.5 -398.5t-321.5 -139.5t-321.5 138.5t-118.5 398zM237 513q0 -323 175 -407q53 -25 120.5 -25t120 25t85 65.5t53.5 97.5q37 100 37 204t-8.5 163t-29.5 116t-53.5 97.5t-85 65.5t-128 25 t-135.5 -36.5t-92 -100.5q-59 -121 -59 -290zM266 1172l175 320h195l175 -320h-92l-181 218l-180 -218h-92z" />
<glyph unicode="&#xf5;" horiz-adv-x="1064" d="M92 0zM92 512.5q0 259.5 121 395.5t319 136t319 -135.5t121 -394.5t-118.5 -398.5t-321.5 -139.5t-321.5 138.5t-118.5 398zM237 513q0 -323 175 -407q53 -25 120.5 -25t120 25t85 65.5t53.5 97.5q37 100 37 204t-8.5 163t-29.5 116t-53.5 97.5t-85 65.5t-128 25 t-135.5 -36.5t-92 -100.5q-59 -121 -59 -290zM238 1241q0 -26 2 -41h96q0 43 13.5 65.5t33.5 22t118.5 -43t151.5 -42.5t94 38t41 120q0 11 -2 35h-97q0 -96 -39 -96q-21 0 -131 46t-153 46q-128 0 -128 -150z" />
<glyph unicode="&#xf6;" horiz-adv-x="1064" d="M92 0zM92 512.5q0 259.5 121 395.5t319 136t319 -135.5t121 -394.5t-118.5 -398.5t-321.5 -139.5t-321.5 138.5t-118.5 398zM237 513q0 -323 175 -407q53 -25 120.5 -25t120 25t85 65.5t53.5 97.5q37 100 37 204t-8.5 163t-29.5 116t-53.5 97.5t-85 65.5t-128 25 t-135.5 -36.5t-92 -100.5q-59 -121 -59 -290zM260 1191v174h166v-174h-166zM639 1191v174h166v-174h-166z" />
<glyph unicode="&#xf7;" horiz-adv-x="1024" d="M100 551h750v98h-750v-98zM392 171v214h173v-214h-173zM392 808v216h173v-216h-173z" />
<glyph unicode="&#xf8;" horiz-adv-x="1064" d="M92 510q0 -323 188 -460l-99 -209l73 -38l98 207q80 -34 180 -34q203 0 321.5 139.5t118.5 397.5q0 305 -171 443l105 222l-72 38l-102 -215q-87 43 -199 43q-199 0 -320 -136t-121 -398zM237 513q0 169 59 290q68 137 238 137q87 0 149 -42l-349 -734q-97 109 -97 349z M400 112l345 726q83 -111 83 -327q0 -321 -176 -405q-52 -25 -123.5 -25t-128.5 31z" />
<glyph unicode="&#xf9;" horiz-adv-x="1127" d="M121 0zM121 436v587h142v-617q0 -158 49 -238.5t171 -80.5q205 0 289 173q41 84 41 176v587h142v-1023h-138v192q-40 -106 -142.5 -161t-192 -55t-142 15.5t-87 40t-60 63t-39 75.5t-21.5 88q-12 75 -12 178zM233 1492h195l205 -319l-94 -1z" />
<glyph unicode="&#xfa;" horiz-adv-x="1127" d="M121 0zM121 436v587h142v-617q0 -158 49 -238.5t171 -80.5q205 0 289 173q41 84 41 176v587h142v-1023h-138v192q-40 -106 -142.5 -161t-192 -55t-142 15.5t-87 40t-60 63t-39 75.5t-21.5 88q-12 75 -12 178zM406 1172l205 320h195l-308 -320h-92z" />
<glyph unicode="&#xfb;" horiz-adv-x="1127" d="M121 0zM121 436v587h142v-617q0 -158 49 -238.5t171 -80.5q205 0 289 173q41 84 41 176v587h142v-1023h-138v192q-40 -106 -142.5 -161t-192 -55t-142 15.5t-87 40t-60 63t-39 75.5t-21.5 88q-12 75 -12 178zM283 1172l175 320h195l175 -320h-92l-181 218l-180 -218h-92z " />
<glyph unicode="&#xfc;" horiz-adv-x="1127" d="M121 0zM121 436v587h142v-617q0 -158 49 -238.5t171 -80.5q205 0 289 173q41 84 41 176v587h142v-1023h-138v192q-40 -106 -142.5 -161t-192 -55t-142 15.5t-87 40t-60 63t-39 75.5t-21.5 88q-12 75 -12 178zM266 1191v174h166v-174h-166zM645 1191v174h166v-174h-166z " />
<glyph unicode="&#xfd;" horiz-adv-x="985" d="M34 0zM34 1023h146l57 -147q57 -146 137 -351t124 -314q86 224 317 812h140q-69 -175 -198.5 -496t-169 -421t-66 -156.5t-63.5 -113.5t-76 -88q-86 -68 -213 -68q-53 0 -105 14l15 113q46 -7 88 -7q169 0 236 197l23 67zM336 1172l205 320h195l-308 -320h-92z" />
<glyph unicode="&#xfe;" horiz-adv-x="1058" d="M131 -394v1858h141v-590q99 170 301 170q290 0 371 -318q23 -94 23 -208t-23.5 -211t-69.5 -171q-100 -158 -294 -160q-104 0 -183.5 46t-123.5 132v-532zM273 519q0 -438 286 -438q124 0 193.5 116t69.5 322t-77 315t-188.5 109t-197.5 -114.5t-86 -309.5z" />
<glyph unicode="&#xff;" horiz-adv-x="985" d="M34 0zM34 1023h146l57 -147q57 -146 137 -351t124 -314q86 224 317 812h140q-69 -175 -198.5 -496t-169 -421t-66 -156.5t-63.5 -113.5t-76 -88q-86 -68 -213 -68q-53 0 -105 14l15 113q46 -7 88 -7q169 0 236 197l23 67zM218 1191v174h166v-174h-166zM597 1191v174h166 v-174h-166z" />
<glyph unicode="&#x152;" horiz-adv-x="2171" d="M112 737.5q0 -202.5 40.5 -350.5t120.5 -238q155 -174 458 -174t433 205v-180h957v113h-811v610h686v115h-686v514h800v112h-947q1 -112 0 -176q-129 203 -442 203q-452 0 -567 -405q-42 -146 -42 -348.5zM265 741q0 377 143 523q108 110 312 110q104 0 182 -29 t127.5 -81t80.5 -133q54 -145 54 -353.5t-21.5 -326t-72.5 -199.5q-98 -159 -347.5 -159t-353.5 155.5t-104 492.5zM1086 1464z" />
<glyph unicode="&#x153;" horiz-adv-x="1878" d="M156 513.5q0 259.5 119.5 395t317.5 135.5q121 0 216.5 -57t149.5 -168q53 108 145 166.5t222 58.5t224 -66q176 -126 176 -420q0 -22 -4 -58h-696q0 -316 182 -396q54 -24 122 -24q104 0 172 67.5t106 169.5l96 -41q-38 -143 -139.5 -220.5t-232.5 -79.5 q-265 0 -375 223q-53 -110 -147.5 -166.5t-218.5 -56.5q-201 0 -318 139t-117 398.5zM299 502.5q0 -75.5 13.5 -147.5t45.5 -137q67 -138 234 -138q227 0 278 272q14 72 14 157.5t-14 157.5t-46 136q-67 137 -233 137q-242 0 -284 -304q-8 -58 -8 -133.5zM939 1023z M1028 592h561q-2 165 -69 257.5t-202 92.5t-208.5 -96.5t-81.5 -253.5z" />
<glyph unicode="&#x178;" horiz-adv-x="1162" d="M-4 1464h158l428 -782l427 782h157l-512 -916v-548h-146v549zM0 0zM306 1632v174h166v-174h-166zM685 1632v174h166v-174h-166z" />
<glyph unicode="&#x2c6;" horiz-adv-x="838" d="M152 1172l175 320h195l175 -320h-92l-181 218l-180 -218h-92z" />
<glyph unicode="&#x2dc;" horiz-adv-x="798" d="M125 1241q0 -26 2 -41h96q0 43 13.5 65.5t33.5 22t118.5 -43t151.5 -42.5t94 38t41 120q0 11 -2 35h-97q0 -96 -39 -96q-21 0 -131 46t-153 46q-128 0 -128 -150z" />
<glyph unicode="&#x2000;" horiz-adv-x="1016" />
<glyph unicode="&#x2001;" horiz-adv-x="2033" />
<glyph unicode="&#x2002;" horiz-adv-x="1016" />
<glyph unicode="&#x2003;" horiz-adv-x="2033" />
<glyph unicode="&#x2004;" horiz-adv-x="677" />
<glyph unicode="&#x2005;" horiz-adv-x="508" />
<glyph unicode="&#x2006;" horiz-adv-x="338" />
<glyph unicode="&#x2007;" horiz-adv-x="338" />
<glyph unicode="&#x2008;" horiz-adv-x="254" />
<glyph unicode="&#x2009;" horiz-adv-x="406" />
<glyph unicode="&#x200a;" horiz-adv-x="112" />
<glyph unicode="&#x2010;" horiz-adv-x="724" d="M100 400v111h500v-111h-500z" />
<glyph unicode="&#x2011;" horiz-adv-x="724" d="M100 400v111h500v-111h-500z" />
<glyph unicode="&#x2012;" horiz-adv-x="724" d="M100 400v111h500v-111h-500z" />
<glyph unicode="&#x2013;" horiz-adv-x="1024" d="M135 334v86h754v-86h-754z" />
<glyph unicode="&#x2014;" horiz-adv-x="2048" d="M135 334v86h1778v-86h-1778z" />
<glyph unicode="&#x2018;" horiz-adv-x="330" d="M30 992v160q0 152 41 226q31 55 74 91q0 -1 34 -19.5t35 -18.5q-48 -80 -63 -121t-15 -110l94 -13v-195h-200z" />
<glyph unicode="&#x2019;" horiz-adv-x="330" d="M100 1292v172h200q-1 -23 -1 -75.5t-1 -78.5t-4.5 -70.5t-12.5 -72.5t-24 -63q-26 -62 -97 -113l-49 63q26 24 51.5 82t27.5 138l-22 4q-23 4 -46 9z" />
<glyph unicode="&#x201a;" horiz-adv-x="436" d="M110 -319q26 24 51.5 82t27.5 138q-61 17 -61 18v174h192q-4 -170 -16 -237q-30 -157 -145 -238z" />
<glyph unicode="&#x201c;" horiz-adv-x="630" d="M30 995v89q0 188 30 258q34 82 105 131l49 -63q-28 -26 -53.5 -79.5t-27.5 -133.5l97 -14v-188h-200zM330 995v89q0 62 2 89t4 60t6 48t10 42t15.5 43t22.5 37q20 34 69 70l49 -63q-28 -26 -53.5 -79.5t-27.5 -134.5l103 -13v-188h-200z" />
<glyph unicode="&#x201d;" horiz-adv-x="631" d="M100 1292v172h201q0 -241 -14.5 -283t-29.5 -77q-26 -62 -97 -113l-50 63q26 23 52 81.5t28 138.5l-22 4q-23 4 -46 9zM401 1292v172h200q0 -195 -11 -240t-21.5 -80t-26.5 -58q-41 -62 -89 -95l-51 63q26 22 52 80.5t28 138.5z" />
<glyph unicode="&#x201e;" horiz-adv-x="744" d="M110 -319q26 24 51.5 82t27.5 138q-2 0 -13.5 3.5t-18 5t-11.5 2.5q-15 4 -20 7v174h194q-4 -170 -16 -237q-30 -157 -145 -238zM418 -319q26 24 51.5 82t27.5 138q-63 17 -63 18v174h194q-4 -170 -16 -237q-30 -157 -145 -238z" />
<glyph unicode="&#x202f;" horiz-adv-x="406" />
<glyph unicode="&#x2039;" horiz-adv-x="528" d="M51 552v197l384 301v-141l-286 -259l286 -257v-142z" />
<glyph unicode="&#x203a;" horiz-adv-x="528" d="M51 251l384 301v197l-384 301v-141l286 -259l-286 -257v-142z" />
<glyph unicode="&#x205f;" horiz-adv-x="508" />
<glyph unicode="&#x20ac;" horiz-adv-x="1275" d="M-13 586h135q33 -310 180 -459.5t384 -149.5q217 0 319 95q53 50 86.5 112.5t62.5 155.5l-122 39q-57 -160 -111 -207q-58 -52 -117.5 -64.5t-114.5 -12.5q-188 0 -287.5 122t-126.5 369h366v86h-373q-1 17 -1 64t1 60h373v86h-367q37 370 238 460q75 34 154.5 34t124 -9 t77 -30t54.5 -44t40 -62q26 -57 53 -158l134 31q-50 220 -171 308q-114 81 -296 81q-242 0 -386 -151.5t-175 -459.5h-134v-86h128q-1 -13 -1 -60t1 -64h-128v-86z" />
<glyph unicode="&#x2122;" horiz-adv-x="1847" d="M116 1370v95h641v-95h-265v-754h-114v754h-262zM938 616v849h143l250 -589l256 588h131v-848h-104v651l-241 -535h-93l-234 538v-654h-108z" />
<glyph unicode="&#xe000;" horiz-adv-x="1025" d="M0 0v1025h1025v-1025h-1025z" />
</font>
</defs>
</svg>
